# xmcd
#
# Track frame offsets:
#	225
#	19127
#	33955
#	49360
#	63540
#	80050
#	99812
#	112545
#	132327
#	143525
#	154027
#	167905
#
# Disc length: 2505 seconds
#
# Revision: 2425059273
# Processed by: cddbd v1.5.2PL0 Copyright (c) Steve Scherf et al.
# Submitted via: EZCDAudioConverter 9.0.6.1
#
DISCID=9409c60c
DTITLE=k.d. lang and The Reclines - Absolute Torch And Twang
DYEAR=1989
DGENRE=Country
TTITLE0=Luck In My Eyes
TTITLE1=Three Days
TTITLE2=Trail Of Broken Hearts
TTITLE3=Big Boned Gal
TTITLE4=Didn't I
TTITLE5=Wallflower Waltz
TTITLE6=Full Moon Full Of Love
TTITLE7=Pullin' Back The Reins
TTITLE8=Big Big Love
TTITLE9=It's Me
TTITLE10=Walkin' In And Out Of Your Arms
TTITLE11=Nowhere To Stand
EXTD=
EXTT0=
EXTT1=
EXTT2=
EXTT3=
EXTT4=
EXTT5=
EXTT6=
EXTT7=
EXTT8=
EXTT9=
EXTT10=
EXTT11=
PLAYORDER=
